<mxfile host="Electron" agent="Mozilla/5.0 (Windows NT 10.0; Win64; x64) AppleWebKit/537.36 (KHTML, like Gecko) draw.io/25.0.2 Chrome/128.0.6613.186 Electron/32.2.5 Safari/537.36" version="25.0.2">
  <diagram name="Page-1" id="e7e014a7-5840-1c2e-5031-d8a46d1fe8dd">
    <mxGraphModel dx="1480" dy="866" grid="1" gridSize="10" guides="1" tooltips="1" connect="1" arrows="1" fold="1" page="1" pageScale="1" pageWidth="1169" pageHeight="826" background="none" math="0" shadow="0">
      <root>
        <mxCell id="0" />
        <mxCell id="1" parent="0" />
        <mxCell id="2" value="Парсер данных" style="swimlane;whiteSpace=wrap;movable=1;resizable=1;rotatable=1;deletable=1;editable=1;locked=0;connectable=1;" parent="1" vertex="1">
          <mxGeometry x="25" y="30" width="280" height="682" as="geometry" />
        </mxCell>
        <mxCell id="vhmOeU2H9MDjSPrDZkCn-46" value="" style="ellipse;shape=startState;fillColor=#000000;strokeColor=#ff0000;movable=1;resizable=1;rotatable=1;deletable=1;editable=1;locked=0;connectable=1;" parent="2" vertex="1">
          <mxGeometry x="125" y="50" width="30" height="30" as="geometry" />
        </mxCell>
        <mxCell id="3" value="Сервер" style="swimlane;whiteSpace=wrap;movable=1;resizable=1;rotatable=1;deletable=1;editable=1;locked=0;connectable=1;" parent="1" vertex="1">
          <mxGeometry x="305" y="30" width="280" height="682" as="geometry" />
        </mxCell>
        <mxCell id="vhmOeU2H9MDjSPrDZkCn-44" value="" style="ellipse;shape=startState;fillColor=#000000;strokeColor=#ff0000;movable=1;resizable=1;rotatable=1;deletable=1;editable=1;locked=0;connectable=1;" parent="3" vertex="1">
          <mxGeometry x="125.5" y="50" width="30" height="30" as="geometry" />
        </mxCell>
        <mxCell id="vhmOeU2H9MDjSPrDZkCn-116" style="edgeStyle=orthogonalEdgeStyle;rounded=0;orthogonalLoop=1;jettySize=auto;html=1;strokeColor=#FF6666;endArrow=none;endFill=0;" parent="3" edge="1">
          <mxGeometry relative="1" as="geometry">
            <mxPoint x="140.58" y="513" as="sourcePoint" />
            <mxPoint x="140.16" y="682" as="targetPoint" />
            <Array as="points">
              <mxPoint x="140.58" y="593" />
            </Array>
          </mxGeometry>
        </mxCell>
        <mxCell id="4" value="Клиентская часть приложения" style="swimlane;whiteSpace=wrap;movable=1;resizable=1;rotatable=1;deletable=1;editable=1;locked=0;connectable=1;" parent="1" vertex="1">
          <mxGeometry x="585" y="30" width="280" height="682" as="geometry" />
        </mxCell>
        <mxCell id="vhmOeU2H9MDjSPrDZkCn-109" style="edgeStyle=orthogonalEdgeStyle;rounded=0;orthogonalLoop=1;jettySize=auto;html=1;exitX=1;exitY=0.5;exitDx=0;exitDy=0;" parent="4" edge="1">
          <mxGeometry relative="1" as="geometry">
            <mxPoint x="145" y="611" as="sourcePoint" />
            <mxPoint x="145" y="589" as="targetPoint" />
            <Array as="points">
              <mxPoint x="205.5" y="570" />
              <mxPoint x="205.5" y="589" />
            </Array>
          </mxGeometry>
        </mxCell>
        <mxCell id="vhmOeU2H9MDjSPrDZkCn-110" value="вывод данных" style="edgeLabel;html=1;align=center;verticalAlign=middle;resizable=0;points=[];" parent="vhmOeU2H9MDjSPrDZkCn-109" vertex="1" connectable="0">
          <mxGeometry x="0.0456" y="1" relative="1" as="geometry">
            <mxPoint x="26" y="10" as="offset" />
          </mxGeometry>
        </mxCell>
        <mxCell id="vhmOeU2H9MDjSPrDZkCn-48" value="пользователь" style="swimlane;whiteSpace=wrap;movable=1;resizable=1;rotatable=1;deletable=1;editable=1;locked=0;connectable=1;startSize=42;" parent="1" vertex="1">
          <mxGeometry x="865" y="30" width="280" height="682" as="geometry" />
        </mxCell>
        <mxCell id="vhmOeU2H9MDjSPrDZkCn-50" value="" style="shape=umlActor;verticalLabelPosition=bottom;verticalAlign=top;html=1;movable=0;resizable=0;rotatable=0;deletable=0;editable=0;locked=1;connectable=0;" parent="vhmOeU2H9MDjSPrDZkCn-48" vertex="1">
          <mxGeometry x="80" y="12" width="10" height="20" as="geometry" />
        </mxCell>
        <mxCell id="vhmOeU2H9MDjSPrDZkCn-51" value="" style="ellipse;shape=startState;fillColor=#000000;strokeColor=#ff0000;movable=0;resizable=0;rotatable=0;deletable=0;editable=0;locked=1;connectable=0;" parent="vhmOeU2H9MDjSPrDZkCn-48" vertex="1">
          <mxGeometry x="125" y="62" width="30" height="30" as="geometry" />
        </mxCell>
        <mxCell id="vhmOeU2H9MDjSPrDZkCn-111" value="" style="html=1;whiteSpace=wrap;movable=1;resizable=1;rotatable=1;deletable=1;editable=1;locked=0;connectable=1;" parent="vhmOeU2H9MDjSPrDZkCn-48" vertex="1">
          <mxGeometry x="135" y="620" width="10" height="48" as="geometry" />
        </mxCell>
        <mxCell id="vhmOeU2H9MDjSPrDZkCn-73" style="edgeStyle=orthogonalEdgeStyle;rounded=0;orthogonalLoop=1;jettySize=auto;html=1;entryX=1;entryY=0.25;entryDx=0;entryDy=0;" parent="1" source="vhmOeU2H9MDjSPrDZkCn-63" target="vhmOeU2H9MDjSPrDZkCn-74" edge="1">
          <mxGeometry relative="1" as="geometry">
            <mxPoint x="200.5" y="192" as="targetPoint" />
            <Array as="points">
              <mxPoint x="220.5" y="158" />
              <mxPoint x="220.5" y="195" />
              <mxPoint x="169.5" y="195" />
            </Array>
          </mxGeometry>
        </mxCell>
        <mxCell id="vhmOeU2H9MDjSPrDZkCn-75" value="запуск файла парсера" style="edgeLabel;html=1;align=center;verticalAlign=middle;resizable=0;points=[];" parent="vhmOeU2H9MDjSPrDZkCn-73" vertex="1" connectable="0">
          <mxGeometry x="0.2946" y="-1" relative="1" as="geometry">
            <mxPoint x="50" y="1" as="offset" />
          </mxGeometry>
        </mxCell>
        <mxCell id="vhmOeU2H9MDjSPrDZkCn-95" style="edgeStyle=orthogonalEdgeStyle;rounded=0;orthogonalLoop=1;jettySize=auto;html=1;endArrow=none;endFill=0;" parent="1" source="vhmOeU2H9MDjSPrDZkCn-63" edge="1">
          <mxGeometry relative="1" as="geometry">
            <mxPoint x="445.5" y="102" as="targetPoint" />
          </mxGeometry>
        </mxCell>
        <mxCell id="vhmOeU2H9MDjSPrDZkCn-103" style="edgeStyle=orthogonalEdgeStyle;rounded=0;orthogonalLoop=1;jettySize=auto;html=1;entryX=0.5;entryY=0;entryDx=0;entryDy=0;strokeColor=#FF6666;endArrow=none;endFill=0;" parent="1" source="vhmOeU2H9MDjSPrDZkCn-63" target="vhmOeU2H9MDjSPrDZkCn-77" edge="1">
          <mxGeometry relative="1" as="geometry" />
        </mxCell>
        <mxCell id="vhmOeU2H9MDjSPrDZkCn-63" value="" style="html=1;whiteSpace=wrap;movable=1;resizable=1;rotatable=1;deletable=1;editable=1;locked=0;connectable=1;" parent="1" vertex="1">
          <mxGeometry x="440.5" y="134" width="10" height="48" as="geometry" />
        </mxCell>
        <mxCell id="vhmOeU2H9MDjSPrDZkCn-78" style="edgeStyle=orthogonalEdgeStyle;rounded=0;orthogonalLoop=1;jettySize=auto;html=1;entryX=0;entryY=0.25;entryDx=0;entryDy=0;dashed=1;" parent="1" source="vhmOeU2H9MDjSPrDZkCn-74" target="vhmOeU2H9MDjSPrDZkCn-77" edge="1">
          <mxGeometry relative="1" as="geometry">
            <Array as="points">
              <mxPoint x="370.5" y="262" />
              <mxPoint x="370.5" y="282" />
              <mxPoint x="390.5" y="282" />
              <mxPoint x="400.5" y="283" />
              <mxPoint x="400.5" y="292" />
            </Array>
          </mxGeometry>
        </mxCell>
        <mxCell id="vhmOeU2H9MDjSPrDZkCn-81" value="сохранение json с&amp;nbsp;&lt;div&gt;данными&amp;nbsp;&lt;div&gt;с сайта&lt;/div&gt;&lt;/div&gt;" style="edgeLabel;html=1;align=center;verticalAlign=middle;resizable=0;points=[];" parent="vhmOeU2H9MDjSPrDZkCn-78" vertex="1" connectable="0">
          <mxGeometry x="-0.1347" y="-1" relative="1" as="geometry">
            <mxPoint as="offset" />
          </mxGeometry>
        </mxCell>
        <mxCell id="vhmOeU2H9MDjSPrDZkCn-94" style="edgeStyle=orthogonalEdgeStyle;rounded=0;orthogonalLoop=1;jettySize=auto;html=1;endArrow=none;endFill=0;" parent="1" source="vhmOeU2H9MDjSPrDZkCn-74" edge="1">
          <mxGeometry relative="1" as="geometry">
            <mxPoint x="165" y="102" as="targetPoint" />
          </mxGeometry>
        </mxCell>
        <mxCell id="vhmOeU2H9MDjSPrDZkCn-74" value="" style="html=1;whiteSpace=wrap;movable=1;resizable=1;rotatable=1;deletable=1;editable=1;locked=0;connectable=1;" parent="1" vertex="1">
          <mxGeometry x="160" y="172" width="10" height="90" as="geometry" />
        </mxCell>
        <mxCell id="vhmOeU2H9MDjSPrDZkCn-77" value="" style="html=1;whiteSpace=wrap;movable=1;resizable=1;rotatable=1;deletable=1;editable=1;locked=0;connectable=1;" parent="1" vertex="1">
          <mxGeometry x="440.5" y="262" width="10" height="120" as="geometry" />
        </mxCell>
        <mxCell id="vhmOeU2H9MDjSPrDZkCn-87" style="edgeStyle=orthogonalEdgeStyle;rounded=0;orthogonalLoop=1;jettySize=auto;html=1;entryX=1;entryY=0.25;entryDx=0;entryDy=0;" parent="1" source="vhmOeU2H9MDjSPrDZkCn-82" target="vhmOeU2H9MDjSPrDZkCn-85" edge="1">
          <mxGeometry relative="1" as="geometry">
            <Array as="points">
              <mxPoint x="760.5" y="404" />
              <mxPoint x="760.5" y="399" />
            </Array>
          </mxGeometry>
        </mxCell>
        <mxCell id="vhmOeU2H9MDjSPrDZkCn-88" value="показать последние спортивные новости" style="edgeLabel;html=1;align=center;verticalAlign=middle;resizable=0;points=[];" parent="vhmOeU2H9MDjSPrDZkCn-87" vertex="1" connectable="0">
          <mxGeometry x="-0.0451" y="1" relative="1" as="geometry">
            <mxPoint as="offset" />
          </mxGeometry>
        </mxCell>
        <mxCell id="vhmOeU2H9MDjSPrDZkCn-97" style="edgeStyle=orthogonalEdgeStyle;rounded=0;orthogonalLoop=1;jettySize=auto;html=1;endArrow=none;endFill=0;" parent="1" source="vhmOeU2H9MDjSPrDZkCn-82" edge="1">
          <mxGeometry relative="1" as="geometry">
            <mxPoint x="1005" y="122" as="targetPoint" />
          </mxGeometry>
        </mxCell>
        <mxCell id="vhmOeU2H9MDjSPrDZkCn-120" style="edgeStyle=orthogonalEdgeStyle;rounded=0;orthogonalLoop=1;jettySize=auto;html=1;entryX=0.5;entryY=0;entryDx=0;entryDy=0;strokeColor=#FF6666;endArrow=none;endFill=0;" parent="1" source="vhmOeU2H9MDjSPrDZkCn-82" target="vhmOeU2H9MDjSPrDZkCn-111" edge="1">
          <mxGeometry relative="1" as="geometry" />
        </mxCell>
        <mxCell id="vhmOeU2H9MDjSPrDZkCn-82" value="" style="html=1;whiteSpace=wrap;movable=1;resizable=1;rotatable=1;deletable=1;editable=1;locked=0;connectable=1;" parent="1" vertex="1">
          <mxGeometry x="1000" y="382" width="10" height="48" as="geometry" />
        </mxCell>
        <mxCell id="vhmOeU2H9MDjSPrDZkCn-83" style="edgeStyle=orthogonalEdgeStyle;rounded=0;orthogonalLoop=1;jettySize=auto;html=1;entryX=1;entryY=0.75;entryDx=0;entryDy=0;exitX=1;exitY=0.25;exitDx=0;exitDy=0;" parent="1" source="vhmOeU2H9MDjSPrDZkCn-77" target="vhmOeU2H9MDjSPrDZkCn-77" edge="1">
          <mxGeometry relative="1" as="geometry" />
        </mxCell>
        <mxCell id="vhmOeU2H9MDjSPrDZkCn-84" value="обработка json и&amp;nbsp;&lt;div&gt;сохранение данных&amp;nbsp;&lt;div&gt;в бд&lt;/div&gt;&lt;/div&gt;" style="edgeLabel;html=1;align=center;verticalAlign=middle;resizable=0;points=[];" parent="vhmOeU2H9MDjSPrDZkCn-83" vertex="1" connectable="0">
          <mxGeometry x="-0.0736" y="-1" relative="1" as="geometry">
            <mxPoint x="51" y="3" as="offset" />
          </mxGeometry>
        </mxCell>
        <mxCell id="vhmOeU2H9MDjSPrDZkCn-96" style="edgeStyle=orthogonalEdgeStyle;rounded=0;orthogonalLoop=1;jettySize=auto;html=1;endArrow=none;endFill=0;" parent="1" source="vhmOeU2H9MDjSPrDZkCn-45" edge="1">
          <mxGeometry relative="1" as="geometry">
            <mxPoint x="725" y="102" as="targetPoint" />
          </mxGeometry>
        </mxCell>
        <mxCell id="vhmOeU2H9MDjSPrDZkCn-119" style="edgeStyle=orthogonalEdgeStyle;rounded=0;orthogonalLoop=1;jettySize=auto;html=1;entryX=0.5;entryY=0;entryDx=0;entryDy=0;strokeColor=#FF6666;endArrow=none;endFill=0;" parent="1" source="vhmOeU2H9MDjSPrDZkCn-85" target="vhmOeU2H9MDjSPrDZkCn-98" edge="1">
          <mxGeometry relative="1" as="geometry" />
        </mxCell>
        <mxCell id="vhmOeU2H9MDjSPrDZkCn-85" value="" style="html=1;whiteSpace=wrap;movable=1;resizable=1;rotatable=1;deletable=1;editable=1;locked=0;connectable=1;" parent="1" vertex="1">
          <mxGeometry x="720" y="391" width="10" height="30" as="geometry" />
        </mxCell>
        <mxCell id="vhmOeU2H9MDjSPrDZkCn-99" style="edgeStyle=orthogonalEdgeStyle;rounded=0;orthogonalLoop=1;jettySize=auto;html=1;" parent="1" source="vhmOeU2H9MDjSPrDZkCn-89" edge="1">
          <mxGeometry relative="1" as="geometry">
            <mxPoint x="720" y="532" as="targetPoint" />
            <Array as="points">
              <mxPoint x="720.5" y="532" />
            </Array>
          </mxGeometry>
        </mxCell>
        <mxCell id="vhmOeU2H9MDjSPrDZkCn-100" value="передача новостей" style="edgeLabel;html=1;align=center;verticalAlign=middle;resizable=0;points=[];" parent="vhmOeU2H9MDjSPrDZkCn-99" vertex="1" connectable="0">
          <mxGeometry x="-0.6505" y="-2" relative="1" as="geometry">
            <mxPoint x="23" y="-2" as="offset" />
          </mxGeometry>
        </mxCell>
        <mxCell id="vhmOeU2H9MDjSPrDZkCn-89" value="" style="html=1;whiteSpace=wrap;movable=1;resizable=1;rotatable=1;deletable=1;editable=1;locked=0;connectable=1;" parent="1" vertex="1">
          <mxGeometry x="440.5" y="421" width="10" height="120" as="geometry" />
        </mxCell>
        <mxCell id="vhmOeU2H9MDjSPrDZkCn-90" style="edgeStyle=orthogonalEdgeStyle;rounded=0;orthogonalLoop=1;jettySize=auto;html=1;entryX=0.959;entryY=0.189;entryDx=0;entryDy=0;entryPerimeter=0;" parent="1" source="vhmOeU2H9MDjSPrDZkCn-85" target="vhmOeU2H9MDjSPrDZkCn-89" edge="1">
          <mxGeometry relative="1" as="geometry">
            <Array as="points">
              <mxPoint x="520.5" y="406" />
              <mxPoint x="520.5" y="444" />
            </Array>
          </mxGeometry>
        </mxCell>
        <mxCell id="vhmOeU2H9MDjSPrDZkCn-91" value="получить последние новости" style="edgeLabel;html=1;align=center;verticalAlign=middle;resizable=0;points=[];" parent="vhmOeU2H9MDjSPrDZkCn-90" vertex="1" connectable="0">
          <mxGeometry x="0.176" y="2" relative="1" as="geometry">
            <mxPoint x="71" y="-2" as="offset" />
          </mxGeometry>
        </mxCell>
        <mxCell id="vhmOeU2H9MDjSPrDZkCn-92" style="edgeStyle=orthogonalEdgeStyle;rounded=0;orthogonalLoop=1;jettySize=auto;html=1;entryX=0;entryY=0.75;entryDx=0;entryDy=0;exitX=0;exitY=0.25;exitDx=0;exitDy=0;dashed=1;" parent="1" source="vhmOeU2H9MDjSPrDZkCn-74" target="vhmOeU2H9MDjSPrDZkCn-74" edge="1">
          <mxGeometry relative="1" as="geometry">
            <Array as="points">
              <mxPoint x="100.5" y="195" />
              <mxPoint x="100.5" y="240" />
            </Array>
          </mxGeometry>
        </mxCell>
        <mxCell id="vhmOeU2H9MDjSPrDZkCn-93" value="парсинг данных" style="edgeLabel;html=1;align=center;verticalAlign=middle;resizable=0;points=[];" parent="vhmOeU2H9MDjSPrDZkCn-92" vertex="1" connectable="0">
          <mxGeometry x="-0.1828" relative="1" as="geometry">
            <mxPoint y="13" as="offset" />
          </mxGeometry>
        </mxCell>
        <mxCell id="vhmOeU2H9MDjSPrDZkCn-112" style="edgeStyle=orthogonalEdgeStyle;rounded=0;orthogonalLoop=1;jettySize=auto;html=1;entryX=0;entryY=0.25;entryDx=0;entryDy=0;endArrow=open;endFill=0;" parent="1" source="vhmOeU2H9MDjSPrDZkCn-98" target="vhmOeU2H9MDjSPrDZkCn-111" edge="1">
          <mxGeometry relative="1" as="geometry">
            <Array as="points">
              <mxPoint x="800" y="662" />
              <mxPoint x="800" y="662" />
            </Array>
          </mxGeometry>
        </mxCell>
        <mxCell id="vhmOeU2H9MDjSPrDZkCn-118" style="edgeStyle=orthogonalEdgeStyle;rounded=0;orthogonalLoop=1;jettySize=auto;html=1;strokeColor=#FF6666;endArrow=none;endFill=0;" parent="1" source="vhmOeU2H9MDjSPrDZkCn-98" edge="1">
          <mxGeometry relative="1" as="geometry">
            <mxPoint x="725" y="710" as="targetPoint" />
          </mxGeometry>
        </mxCell>
        <mxCell id="vhmOeU2H9MDjSPrDZkCn-98" value="" style="html=1;whiteSpace=wrap;movable=1;resizable=1;rotatable=1;deletable=1;editable=1;locked=0;connectable=1;" parent="1" vertex="1">
          <mxGeometry x="720" y="514" width="10" height="156" as="geometry" />
        </mxCell>
        <mxCell id="vhmOeU2H9MDjSPrDZkCn-101" style="edgeStyle=orthogonalEdgeStyle;rounded=0;orthogonalLoop=1;jettySize=auto;html=1;exitX=1;exitY=0.5;exitDx=0;exitDy=0;dashed=1;" parent="1" source="vhmOeU2H9MDjSPrDZkCn-98" edge="1">
          <mxGeometry relative="1" as="geometry">
            <mxPoint x="730" y="570" as="targetPoint" />
            <Array as="points">
              <mxPoint x="790.5" y="551" />
              <mxPoint x="790.5" y="570" />
            </Array>
          </mxGeometry>
        </mxCell>
        <mxCell id="vhmOeU2H9MDjSPrDZkCn-102" value="обработка данных" style="edgeLabel;html=1;align=center;verticalAlign=middle;resizable=0;points=[];" parent="vhmOeU2H9MDjSPrDZkCn-101" vertex="1" connectable="0">
          <mxGeometry x="0.0456" y="1" relative="1" as="geometry">
            <mxPoint x="26" y="10" as="offset" />
          </mxGeometry>
        </mxCell>
        <mxCell id="vhmOeU2H9MDjSPrDZkCn-105" style="edgeStyle=orthogonalEdgeStyle;rounded=0;orthogonalLoop=1;jettySize=auto;html=1;entryX=0.5;entryY=0;entryDx=0;entryDy=0;strokeColor=#FF6666;endArrow=none;endFill=0;exitX=0.5;exitY=1;exitDx=0;exitDy=0;" parent="1" source="vhmOeU2H9MDjSPrDZkCn-77" target="vhmOeU2H9MDjSPrDZkCn-89" edge="1">
          <mxGeometry relative="1" as="geometry">
            <mxPoint x="444.65999999999997" y="341" as="sourcePoint" />
            <mxPoint x="444.65999999999997" y="421" as="targetPoint" />
          </mxGeometry>
        </mxCell>
        <mxCell id="vhmOeU2H9MDjSPrDZkCn-106" style="edgeStyle=orthogonalEdgeStyle;rounded=0;orthogonalLoop=1;jettySize=auto;html=1;strokeColor=#FF6666;endArrow=none;endFill=0;" parent="1" edge="1">
          <mxGeometry relative="1" as="geometry">
            <mxPoint x="164.63" y="262" as="sourcePoint" />
            <mxPoint x="164.5" y="712" as="targetPoint" />
            <Array as="points">
              <mxPoint x="164.63" y="342" />
            </Array>
          </mxGeometry>
        </mxCell>
        <mxCell id="vhmOeU2H9MDjSPrDZkCn-107" value="" style="edgeStyle=orthogonalEdgeStyle;rounded=0;orthogonalLoop=1;jettySize=auto;html=1;endArrow=none;endFill=0;" parent="1" source="vhmOeU2H9MDjSPrDZkCn-85" target="vhmOeU2H9MDjSPrDZkCn-45" edge="1">
          <mxGeometry relative="1" as="geometry">
            <mxPoint x="725" y="102" as="targetPoint" />
            <mxPoint x="725" y="391" as="sourcePoint" />
          </mxGeometry>
        </mxCell>
        <mxCell id="vhmOeU2H9MDjSPrDZkCn-45" value="" style="ellipse;shape=startState;fillColor=#000000;strokeColor=#ff0000;movable=1;resizable=1;rotatable=1;deletable=1;editable=1;locked=0;connectable=1;" parent="1" vertex="1">
          <mxGeometry x="710" y="80" width="30" height="30" as="geometry" />
        </mxCell>
      </root>
    </mxGraphModel>
  </diagram>
</mxfile>
